<svg xmlns="http://www.w3.org/2000/svg" version="1.1" xmlns:xlink="http://www.w3.org/1999/xlink" viewBox="0 0 9.25927734375 9.641536349269332"><g transform="matrix(0.8571428571428571,0,0,0.8571428571428571,1.32275390625,7.292036264053666)"><g transform="matrix(1,0,0,1,0,0)" clip-path="url(#SvgjsClipPath7807)"><g clip-path="url(#SvgjsClipPath78051be318cf-b916-417f-a830-ef38249f05f1)"><path d=" M 1.8975099312495893 -5.861468003302828 C 2.1223027667733847 -6.0629395844872045 2.423541203914071 -6.295751189411373 2.7748301267287534 -6.477242670173153 C 3.1261858726217726 -6.658867797091606 3.5267234041704136 -6.788838684455988 3.9517181823901937 -6.7887718613776515 C 4.264450189004748 -6.788705038299315 4.590880926678274 -6.718941744516068 4.9251967875955 -6.54586997162468 C 5.259379002356052 -6.3727981987332925 5.601579986516979 -6.095749715950398 5.942043570641157 -5.679040999444338 C 5.967102225017323 -5.64836920648791 6.012341449051096 -5.643758414082695 6.04308006508586 -5.668883891537198 C 6.073751858042288 -5.693942545913364 6.078362650447501 -5.739181769947137 6.053237172992999 -5.769920385981901 C 5.702816950196691 -6.19885772582353 5.345580773410065 -6.48987223197874 4.991217988991906 -6.673368405090614 C 4.6369220276520835 -6.856931401280824 4.285900397150746 -6.9323746567226685 3.9517181823901937 -6.932307833644332 C 3.4971207804673696 -6.9322410105659955 3.0746652792243747 -6.793783592252885 2.708875748410684 -6.604741103639087 C 2.343019394518657 -6.415564968868615 2.0330271341158963 -6.175603294562448 1.8016856369151297 -5.968384928641138 C 1.7721498362904216 -5.941922989619906 1.7696773823919734 -5.8965501194294605 1.7961393214132049 -5.8670143188047525 C 1.8226012604344364 -5.837478518180045 1.8679741306248814 -5.835006064281596 1.8975099312495893 -5.861468003302828 Z" fill="#093489" transform="matrix(1,0,0,1,0,0)" fill-rule="nonzero"></path></g><g clip-path="url(#SvgjsClipPath78051be318cf-b916-417f-a830-ef38249f05f1)"><path d=" M 5.33515637318958 -6.142058109237554 C 4.939363280202826 -6.451114846543604 4.470599385672676 -6.66067202020669 3.9453699899482313 -6.660605197128353 C 3.4671172182943066 -6.66067202020669 3.0419219708395175 -6.517737455645038 2.678070309297584 -6.311454612820437 C 2.6435896008759787 -6.29187545086786 2.6314278006187464 -6.248106334557489 2.651006962571324 -6.213625626135884 C 2.670586124523902 -6.179078094635943 2.7143552408342724 -6.166983117457047 2.748835949255877 -6.186495456331288 C 3.0961823104487096 -6.383222598953777 3.4960516112139866 -6.5169355787050005 3.9453699899482313 -6.5169355787050005 C 4.43144106176752 -6.5169355787050005 4.868664463322869 -6.323750059234342 5.246816263628801 -6.028859814535618 C 5.623431133132996 -5.735105562168614 5.939103355194355 -5.340515284591916 6.17685986791542 -4.945056306996844 C 6.188754375859306 -4.9219355218924346 6.212877507138762 -4.906098452326698 6.2406759077267235 -4.906098452326698 C 6.280301993180233 -4.906098452326698 6.312443893860063 -4.9382403530065275 6.312443893860063 -4.977866438460039 L 6.312443893860063 -4.978334200008393 C 6.312443893860063 -4.991231054127327 6.308835447629896 -5.004194731324597 6.302219962874588 -5.015287362328446 C 6.056912442301504 -5.423643194042452 5.7312835815680145 -5.832734079618157 5.33515637318958 -6.142058109237554 Z" fill="#0d3599" transform="matrix(1,0,0,1,0,0)" fill-rule="nonzero"></path></g><g clip-path="url(#SvgjsClipPath78051be318cf-b916-417f-a830-ef38249f05f1)"><path d=" M 1.5351283774310573 -5.115254687519765 C 1.5603206779638965 -5.115187864441429 1.5825059399715955 -5.128218364717036 1.5952691479338563 -5.147797526669613 C 1.8216657373377263 -5.4421531867416455 2.167007406180465 -5.820705925517597 2.611314054039477 -6.103701662272435 C 2.6447255932076983 -6.12501822426176 2.6545485857231554 -6.169388748277159 2.633298846812167 -6.20280028744538 C 2.611982284822841 -6.2362118266136015 2.5676117608074427 -6.24603481912906 2.534200221639221 -6.22478508021807 C 2.0674410194591646 -5.9271550893075515 1.7113408350042583 -5.534569504080947 1.4781951146884076 -5.231192728433495 C 1.4686394144862962 -5.218763635862916 1.4633603912977171 -5.203127035532188 1.4633603912977171 -5.187490435201461 L 1.4633603912977171 -5.1870226736531055 C 1.4633603912977171 -5.1473965881995944 1.4955022919775465 -5.115254687519765 1.5351283774310573 -5.115254687519765 Z" fill="#0d3599" transform="matrix(1,0,0,1,0,0)" fill-rule="nonzero"></path></g><g clip-path="url(#SvgjsClipPath78051be318cf-b916-417f-a830-ef38249f05f1)"><path d=" M 6.31231024770339 -4.322599332292874 C 6.045953457454328 -4.9367702452831255 5.719054958232448 -5.44509340218845 5.329342765374308 -5.802596871288421 C 4.940165157142863 -6.160033517310056 4.484765878280002 -6.3657817755079655 3.9745716751812568 -6.3653808370379465 C 3.3902706782073966 -6.365180367802937 2.89063452148581 -6.151814278674674 2.5372072601643616 -5.939985120348148 C 2.1836463526862397 -5.727888669708277 1.9751583482765365 -5.516527272930107 1.9722181328297332 -5.51365388056164 C 1.9443529091634364 -5.485387718425325 1.9446870245551184 -5.439948025156543 1.972953186691434 -5.412149624568583 C 2.001152525749413 -5.3841507547456136 2.0466590420965307 -5.384484870137296 2.0744574426844915 -5.412751032273611 L 2.0747915580761735 -5.413085147665293 C 2.084347258278285 -5.422707670945741 2.2892936395361567 -5.626451236793557 2.627017477448541 -5.826319064097859 C 2.964941784595935 -6.026454183715506 3.4345743791444585 -6.2219116878496035 3.9745716751812568 -6.2217780416929305 C 4.445473908218173 -6.221443926301248 4.862583563194252 -6.035141183899244 5.232315655629794 -5.696749115203495 C 5.601513163438643 -5.358423869586082 5.919991954790131 -4.8669401284215414 6.18060196030226 -4.265465600315215 C 6.196372206789661 -4.229113845700191 6.23867121537663 -4.2124080761160805 6.275022969991655 -4.2281783226034815 C 6.311374724606679 -4.243948569090882 6.3280804941907896 -4.28624757767785 6.31231024770339 -4.322599332292874 Z" fill="#0b3e99" transform="matrix(1,0,0,1,0,0)" fill-rule="nonzero"></path></g><g clip-path="url(#SvgjsClipPath78051be318cf-b916-417f-a830-ef38249f05f1)"><path d=" M 5.376987620228193 -5.212081328029272 C 5.178656723725629 -5.401925693583107 4.947649341916545 -5.565107650880702 4.679956090100752 -5.680577930246075 C 4.412329661363297 -5.796115032689786 4.108151008775808 -5.863739987966267 3.7654154399881894 -5.86367316488793 C 3.1181002801430626 -5.86387363412294 2.6161253156797004 -5.6996893306502985 2.232828138341862 -5.4511743023170665 C 1.8493304917690137 -5.202859743218842 1.5853793323400627 -4.871885036218439 1.4064939516334038 -4.542580906176446 C 1.4006803438181332 -4.531889213642614 1.3978069514496663 -4.520462467247084 1.3978069514496663 -4.508300666989851 L 1.3978069514496663 -4.507832905441496 C 1.3978069514496663 -4.468206819987985 1.4299488521294954 -4.436064919308155 1.4695749375830065 -4.436064919308155 C 1.4985761535810227 -4.436064919308155 1.523501161800516 -4.453305273518957 1.5348610851177116 -4.478029812503442 C 1.7048589964056233 -4.789692649864612 1.9528394401121645 -5.098816210249 2.3108774938388277 -5.330692292076458 C 2.670586124523902 -5.563437073922291 3.1420897652658457 -5.71993672338624 3.765415439988189 -5.720070369542913 C 4.089373723763266 -5.720003546464577 4.372970868223131 -5.656588445123292 4.623089650436439 -5.548735996688273 C 4.998033942982223 -5.386957324035744 5.298403680104536 -5.124075333860176 5.538298531332368 -4.820631735134387 C 5.778126559481862 -4.517388605643607 5.956611001718501 -4.173917982994289 6.086648712161221 -3.855572837799473 C 6.101617081708584 -3.8188869677927655 6.143581974903871 -3.8012456751119448 6.180267844910578 -3.8162808677376443 C 6.216953714917286 -3.8312492372850078 6.234595007598108 -3.8732141304802936 6.219559814972406 -3.909900000487001 C 6.041075372735767 -4.3463215251023115 5.773716236311657 -4.832125304608255 5.376987620228193 -5.212081328029272 Z" fill="#0a4e99" transform="matrix(1,0,0,1,0,0)" fill-rule="nonzero"></path></g><g clip-path="url(#SvgjsClipPath78051be318cf-b916-417f-a830-ef38249f05f1)"><path d=" M 4.758807322537756 -5.172121127184079 C 4.725529429526207 -5.19370498148675 4.681092082432473 -5.184282927441311 4.659508228129801 -5.151071857508099 C 4.637924373827129 -5.1177271414182135 4.647346427872568 -5.0732229712461425 4.680624320884117 -5.051639116943472 C 5.2957307569710785 -4.651903462334868 5.723131166010969 -4.106894435422836 5.956410532483492 -3.5322827848077596 C 5.97131207895252 -3.495530091722716 6.0132101490694705 -3.4778887990418945 6.049962842154514 -3.4927903455109215 C 6.086715535239557 -3.5076918919799485 6.104356827920379 -3.5495899620968983 6.089455281451352 -3.586342655181942 C 5.845150107053314 -4.1881512986799505 5.398571474530863 -4.7563479337747285 4.758807322537756 -5.172121127184079 Z" fill="#0e5caa" transform="matrix(1,0,0,1,0,0)" fill-rule="nonzero"></path></g><g clip-path="url(#SvgjsClipPath78051be318cf-b916-417f-a830-ef38249f05f1)"><path d=" M 1.842581360857033 -4.410605326461971 C 1.997544079519245 -4.683443955309668 2.256483508072963 -4.923071514224154 2.5709529147242653 -5.093403540903749 C 2.885288675218894 -5.263869213740016 3.2543525368710706 -5.364905708184717 3.6267575524400693 -5.364772062028045 C 3.911423866153318 -5.364772062028045 4.19789440298165 -5.306034576170311 4.465587654797442 -5.175128165709219 C 4.501204355550767 -5.157687342263407 4.5441715949210995 -5.1724552425757615 4.561612418366912 -5.208071943329085 C 4.579053241812723 -5.243688644082409 4.564285341500369 -5.286655883452743 4.528668640747045 -5.304096706898554 C 4.2397924730986 -5.445427517580132 3.931069851184233 -5.508374857373061 3.6267575524400697 -5.508374857373061 C 3.228358359398195 -5.508308034294725 2.8372428818949924 -5.400990170486397 2.5025260825077478 -5.21963233588129 C 2.1679429292771757 -5.03814085511951 1.8890234003008612 -4.782542580482614 1.7177558505245571 -4.481571435655274 L 1.7178226736028936 -4.481638258733611 C 1.6191918099783034 -4.308499662763886 1.5465551238265896 -4.131151212858965 1.4966382843092663 -3.9528672398573343 C 1.4859465917754353 -3.9147112621272253 1.5082654999398073 -3.875085176673714 1.5464214776699166 -3.864393484139883 C 1.584644278478362 -3.8537017916060523 1.624270363931873 -3.8760206997704243 1.6348952333873674 -3.9141766775005338 C 1.6816713882228778 -4.081434842576651 1.7497641050477135 -4.247690661477722 1.8425145377786967 -4.410538503383634 L 1.842581360857033 -4.410605326461971 Z" fill="#0e5caa" transform="matrix(1,0,0,1,0,0)" fill-rule="nonzero"></path></g><g clip-path="url(#SvgjsClipPath78051be318cf-b916-417f-a830-ef38249f05f1)"><path d=" M 4.822823831584069 -1.0602298248293751 C 3.856094357290743 -1.1992886508475138 3.2135904590858404 -1.545365373551955 2.824346027776058 -1.9465711358839597 C 2.796748096423107 -1.9750377672552846 2.7513084031543253 -1.9757059980386495 2.7228417717830005 -1.9481080666856982 C 2.694375140411676 -1.9205769584110834 2.693706909628311 -1.8751372651423024 2.7213048409812624 -1.8466706337709775 C 3.137078034390613 -1.4180005862426937 3.811657010197008 -1.0605639402210576 4.8023759696131165 -0.9181639602860976 C 4.841601116596609 -0.9125508217058353 4.878019694289971 -0.9397478145887685 4.883632832870232 -0.9789729615722607 C 4.889245971450493 -1.0181981085557528 4.862048978567561 -1.0546166862491146 4.822823831584069 -1.0602298248293751 Z" fill="#0091f4" transform="matrix(1,0,0,1,0,0)" fill-rule="nonzero"></path></g><g clip-path="url(#SvgjsClipPath78051be318cf-b916-417f-a830-ef38249f05f1)"><path d=" M 4.748850683865626 -2.6057139805946363 C 4.579521003361078 -2.918045048739172 4.386602776203766 -3.2730092408623594 4.128064286120067 -3.5541339314237765 C 3.9986948064607133 -3.6946628651653173 3.8524190879822386 -3.8168154523643354 3.683757638261056 -3.9041532157500662 C 3.515229834696546 -3.991490979135798 3.3241158306543177 -4.043212041768205 3.109814218429344 -4.043145218689869 C 2.830293281748002 -4.043679803316561 2.5962788614137775 -3.930414685536289 2.437306758051379 -3.7465175739543968 C 2.2779337162189615 -3.5628209316075146 2.192066060556632 -3.3117666262974974 2.192066060556632 -3.0359877820029952 C 2.192066060556632 -2.956000557234272 2.1992829530169677 -2.8738749939587835 2.2140508533293217 -2.7905466152732386 C 2.2210004534763117 -2.751521937524756 2.2582209081097107 -2.725460936973543 2.2972455858581937 -2.7324105371205327 C 2.3362034405283403 -2.7393601372675223 2.362264441079553 -2.776580591900921 2.3553148409325626 -2.8156052696494047 C 2.341950225265274 -2.890914878934576 2.3355352097449753 -2.9646875574180096 2.3355352097449753 -3.0359877820029952 C 2.3355352097449753 -3.2822976487511246 2.4122481036752124 -3.4988712456395374 2.545626968034753 -3.652363856578348 C 2.679406770864313 -3.805655998282149 2.8683824363997745 -3.89900783871816 3.109747395351008 -3.899542423344852 C 3.364677439204539 -3.899275131031506 3.576105659061046 -3.8193547293411196 3.7624084014630497 -3.6884483188800274 C 4.041528399674373 -3.4923225839625665 4.26010668891288 -3.177318592684573 4.445808023609856 -2.8559664089646173 C 4.538825748654185 -2.6953905517221433 4.623824704298141 -2.5335450559912784 4.7055493291036115 -2.384596414379346 C 4.7874076000657535 -2.2355809496890773 4.865657424797729 -2.099529162196079 4.9473152265248626 -1.9893379060192835 C 4.970903773177627 -1.9574632976528008 5.015875704898054 -1.9507809898191564 5.047750313264537 -1.974436359550257 C 5.07962492163102 -1.998024906203021 5.086307229464664 -2.0429968379234484 5.062651859733563 -2.074871446289931 C 4.96368688071729 -2.2081834875711355 4.861380747784196 -2.3976269146549525 4.748850683865626 -2.6057139805946363 Z" fill="#0091f4" transform="matrix(1,0,0,1,0,0)" fill-rule="nonzero"></path></g><g clip-path="url(#SvgjsClipPath78051be318cf-b916-417f-a830-ef38249f05f1)"><path d=" M 4.139156917123917 -0.46430161222497457 C 4.178783002577427 -0.4624305660315544 4.212395010980659 -0.49303553590964544 4.214199234095743 -0.5326616213631556 C 4.216070280289163 -0.5722877068166667 4.185465310411072 -0.6058997152198984 4.145839224957561 -0.607703938334982 C 3.953990167053633 -0.61659140775373 3.7455021626439295 -0.6769994705698732 3.5351431120408057 -0.7790383111896233 C 3.3247840614376822 -0.8810103287310342 3.112754433876148 -1.024345831762707 2.9135548373552105 -1.196682550792393 C 2.883551275182147 -1.2226099051869337 2.8382452280700385 -1.219335574348447 2.812317873675499 -1.1893320121753845 C 2.7863905192809586 -1.159328450002321 2.7896648501194443 -1.114022402890213 2.8196684122925073 -1.0880950484956724 C 3.0272208936055005 -0.9086750831623229 3.248806221369146 -0.7583899799836615 3.4725298876395585 -0.6498693007652774 C 3.6962535539099703 -0.5414822677035662 3.9222492048438213 -0.4745255432104498 4.139156917123917 -0.46430161222497457 Z" fill="#0d3599" transform="matrix(1,0,0,1,0,0)" fill-rule="nonzero"></path></g><g clip-path="url(#SvgjsClipPath78051be318cf-b916-417f-a830-ef38249f05f1)"><path d=" M 4.587072011213096 -0.44966735806929314 C 4.452557154521836 -0.4118454957308666 4.3040094513799225 -0.39353597226668047 4.145972871114234 -0.39353597226668047 C 3.7920110251660937 -0.39340232611000836 3.3908720859124246 -0.48575182037097253 2.996682746805745 -0.6488001315118943 C 2.9600636998773746 -0.6639689702942668 2.9180319836037514 -0.646528146848456 2.9029299678997154 -0.6099090999200838 C 2.8878279521956793 -0.5732900529917133 2.905268775641491 -0.5313251597964266 2.941887822569862 -0.516156321014055 C 3.3501768312055304 -0.3474948712928718 3.7673533092599465 -0.2501336461566739 4.14603969419257 -0.25 C 4.315102082383772 -0.25 4.476546639644619 -0.2695123388742413 4.625963042804907 -0.31147723206952893 C 4.664119020535015 -0.32223574768169616 4.686371105621051 -0.36186183313520726 4.675612590008884 -0.4000178108653163 C 4.664854074396716 -0.43817378859542444 4.625227988943205 -0.46042587368146126 4.587072011213096 -0.44966735806929314 Z" fill="#093489" transform="matrix(1,0,0,1,0,0)" fill-rule="nonzero"></path></g><g clip-path="url(#SvgjsClipPath78051be318cf-b916-417f-a830-ef38249f05f1)"><path d=" M 5.042738582389304 -4.560689960405622 C 4.854898909185561 -4.75761757226312 4.644740327817447 -4.928484183569406 4.4152698768101 -5.050837240003434 C 4.185933071959427 -5.173123473359125 3.9366161666861577 -5.2467625056858855 3.6738678226672628 -5.246695682607549 C 3.632504337177004 -5.246695682607549 3.5908735593734 -5.2448914594924645 3.54897548925645 -5.241149367105624 C 3.0853569717582063 -5.200186820085384 2.7064701175905728 -5.076697771319637 2.4137182113986144 -4.874023374725205 C 2.3811085491704302 -4.851437174247486 2.372956133613384 -4.806732534840406 2.395542334091102 -4.774122872612222 C 2.4181285345688197 -4.74164685654071 2.4628331739759 -4.733494440983664 2.4954428362040844 -4.7560806414613825 C 2.762601503393185 -4.941046922296657 3.116028764714634 -5.058789186325471 3.561671874140374 -5.098214802543971 C 3.599360090322128 -5.101555956460794 3.6367810141905363 -5.103159710340869 3.6738678226672628 -5.103226533419205 C 3.9096196430382344 -5.103226533419205 4.135080709345394 -5.037539447414481 4.347778567690293 -4.924207506555874 C 4.666591474433464 -4.7544768875813075 4.954933057455217 -4.476693350936712 5.192890039411292 -4.161689359658719 C 5.430913844445703 -3.846885837615734 5.618619871492774 -3.4952627994093692 5.739168704811716 -3.181662092776441 C 5.7534020204973775 -3.1446421073780515 5.794965975222645 -3.1261989377571933 5.8319191375427 -3.1404322534428557 C 5.868939122941089 -3.154665569128518 5.887382292561947 -3.1962295238537863 5.873148976876285 -3.2331826861738393 C 5.705556696408484 -3.668267749222422 5.418284282640114 -4.16656744437728 5.042738582389304 -4.560689960405622 Z" fill="#0c61c6" transform="matrix(1,0,0,1,0,0)" fill-rule="nonzero"></path></g><g clip-path="url(#SvgjsClipPath78051be318cf-b916-417f-a830-ef38249f05f1)"><path d=" M 2.319831786335911 -4.610005392217918 C 2.348498886942245 -4.63740285433586 2.3495680561956283 -4.682842547604641 2.3221705940776864 -4.711509648210975 C 2.2947731319597446 -4.740176748817309 2.249333438690963 -4.7412459180706925 2.220666338084629 -4.713848455952751 C 2.061026003938866 -4.561558660423996 1.9374701320947825 -4.378196133468796 1.850132368709051 -4.168171198257355 C 1.7627277822449832 -3.9580794399675767 1.7113408350042583 -3.721458919578231 1.6941673038717922 -3.461049383301111 C 1.691561203816671 -3.4214901209259367 1.7214979429113977 -3.3872767048176775 1.7610572052865718 -3.3846706047625563 C 1.800683290740083 -3.3821313277857716 1.834896706848342 -3.4120680668804986 1.8375028069034631 -3.4516273292556727 C 1.8538076380175554 -3.6990063652571856 1.9024548390464862 -3.9199234622374672 1.982776179206891 -4.1130421586297885 C 2.0631643424456323 -4.306227678100446 2.175092998659175 -4.471815266218153 2.319831786335911 -4.610005392217918 Z" fill="#0c61c6" transform="matrix(1,0,0,1,0,0)" fill-rule="nonzero"></path></g><g clip-path="url(#SvgjsClipPath78051be318cf-b916-417f-a830-ef38249f05f1)"><path d=" M 5.3073579726016185 -3.798572751978486 C 5.101476068247037 -4.077625927111473 4.85737136308401 -4.364163287018142 4.557268918275042 -4.582741576256648 C 4.2575005888577575 -4.801253042416818 3.8993957120527583 -4.951270853282133 3.4750023415380062 -4.951003560968788 C 3.15365015781805 -4.951070384047124 2.8591608515893445 -4.817223758139228 2.6196669388315317 -4.601919799739208 C 2.590131138206824 -4.575457860717977 2.5877255073867116 -4.530018167449195 2.6141874464079433 -4.500549189902824 C 2.6405825623508385 -4.471080212356451 2.6859554325412835 -4.4686077584580035 2.7154912331659915 -4.495136520557571 C 2.9344704608745165 -4.691462724710042 3.194211766368271 -4.807400765623771 3.4749355184596697 -4.807467588702107 C 3.8650486497878256 -4.807267119467098 4.190610687442978 -4.671749916600791 4.472737724179441 -4.466669889186246 C 4.754463822445887 -4.261723507928375 4.990416112051868 -3.9866128944172377 5.191820870157907 -3.7133733270995206 C 5.336359188599635 -3.5175817075737417 5.476487183871157 -3.2389294709107737 5.566831985782027 -2.970167049841598 C 5.579461547587616 -2.9326124798165165 5.620223625372846 -2.912365087080575 5.657778195397928 -2.925061471964499 C 5.695332765423007 -2.9376910337700863 5.71558015815895 -2.978453111555317 5.702883773275026 -3.0160076815803984 C 5.607527240488922 -3.2986024798652176 5.463389860517214 -3.586609947495288 5.3073579726016185 -3.798572751978486 Z" fill="#176be5" transform="matrix(1,0,0,1,0,0)" fill-rule="nonzero"></path></g><g clip-path="url(#SvgjsClipPath78051be318cf-b916-417f-a830-ef38249f05f1)"><path d=" M 2.5437559218413326 -4.426308749871035 C 2.513150951963242 -4.45156787348221 2.4679117279294696 -4.447224373390341 2.4427194273966304 -4.41661940351225 C 2.1537096135915132 -4.065998711480933 1.9714830789680322 -3.5846720782235315 1.953507670895529 -3.0812270060367677 C 1.9521043862504637 -3.041600920583257 1.9831102945985732 -3.0083230275717083 2.022736380052084 -3.0069197429266423 C 2.062362465505595 -3.0056501044382498 2.0955735354388074 -3.0365891897080237 2.0969768200838725 -3.0762152751615344 C 2.1134152973546376 -3.548119854373497 2.286353424089353 -4.00198220243462 2.553445268200117 -4.3252722554263325 C 2.578704391811293 -4.355877225304424 2.5743608917194236 -4.401116449338195 2.5437559218413326 -4.426308749871035 Z" fill="#176be5" transform="matrix(1,0,0,1,0,0)" fill-rule="nonzero"></path></g><g clip-path="url(#SvgjsClipPath78051be318cf-b916-417f-a830-ef38249f05f1)"><path d=" M 4.679956090100752 -0.8604288206034099 C 4.007782745114469 -0.8818790287494087 3.360868523739361 -1.1870600275119454 2.8831503367121285 -1.603768744018006 C 2.8532804206957385 -1.6298297445692187 2.807907550505293 -1.626689059887405 2.7818465499540803 -1.5968191438710155 C 2.755852372481204 -1.566949227854626 2.7589262340846803 -1.5215763576641805 2.7887961501010707 -1.4955153571129678 C 3.288365483744321 -1.0602966479077125 3.9624098749240244 -0.7404145719111588 4.675278474617201 -0.7168928483367303 C 4.714904560070712 -0.7156232098483377 4.748048806925588 -0.7466959412747851 4.749385268492317 -0.7863220267282953 C 4.75065490698071 -0.8259481121818055 4.7195821755542635 -0.8590923590366808 4.679956090100752 -0.8604288206034099 Z" fill="#0c61c6" transform="matrix(1,0,0,1,0,0)" fill-rule="nonzero"></path></g><g clip-path="url(#SvgjsClipPath78051be318cf-b916-417f-a830-ef38249f05f1)"><path d=" M 4.985805319646654 -2.552923748708846 C 4.971906119352674 -2.5948886419041326 4.9630854730122635 -2.6317081580675126 4.957806449823684 -2.657568689383716 C 4.955133526690226 -2.6705323665809875 4.9533961266534785 -2.6807562975664627 4.9523269574000945 -2.6875054284784428 L 4.951190965068376 -2.694989613252125 L 4.950990495833366 -2.696660190210536 L 4.95092367275503 -2.696927482523882 L 4.95092367275503 -2.696927482523882 C 4.9461124111148065 -2.7362194525857104 4.910428887283146 -2.76421832240868 4.871070094142981 -2.759473883846793 C 4.831644477924479 -2.754729445284905 4.803578785023172 -2.7189790983749083 4.8083232235850595 -2.6796203052347423 C 4.8087241620550785 -2.6763459743962565 4.8174779853171525 -2.6046448113412524 4.849419416761973 -2.507884993910083 C 4.881494494363466 -2.4112588226355856 4.936423064756022 -2.2888389431232223 5.033851112970556 -2.185998225563436 C 5.061181752010162 -2.157264301878765 5.106621445278943 -2.1561283095470456 5.135355368963614 -2.1833921255083144 C 5.164089292648285 -2.2107227645479206 5.165225284980004 -2.2561624578167008 5.137961469018736 -2.2848963815013725 C 5.061649513558517 -2.3648836062700953 5.013403250999605 -2.468860316161601 4.985805319646654 -2.552923748708846 Z" fill="#058dd8" transform="matrix(1,0,0,1,0,0)" fill-rule="nonzero"></path></g><g clip-path="url(#SvgjsClipPath78051be318cf-b916-417f-a830-ef38249f05f1)"><path d=" M 5.025297758943491 -3.543642708124955 C 4.8714042095346635 -3.7961671211583745 4.6657895974934265 -4.05062940346355 4.3935523763507565 -4.243146692150844 C 4.121582447521432 -4.435663980838137 3.7819875634156275 -4.564832991262482 3.3696891700797726 -4.564632522027472 C 3.216196559140962 -4.564632522027472 3.052680486451685 -4.546857583189978 2.878873659698596 -4.508434313146523 C 2.8401830973417956 -4.499880959119459 2.815725850670657 -4.461524512154341 2.824279204697722 -4.422833949797539 C 2.832832558724787 -4.384143387440739 2.871189005689905 -4.3596861407696 2.9098795680467058 -4.368239494796665 C 3.0742643407543566 -4.404591249411691 3.2272223670664753 -4.421029726682455 3.3696891700797726 -4.421029726682455 C 3.7519840012425645 -4.420762434369109 4.059236515433531 -4.303287462653643 4.310691759213567 -4.125939012748722 C 4.68750709795277 -3.860049984048014 4.936022126286003 -3.454834837015821 5.088178275658085 -3.114705368283325 C 5.16435658496163 -2.9448411031520862 5.216545409142393 -2.791548961448285 5.249556009840595 -2.681290882193154 C 5.266061310189697 -2.6261618425655877 5.2778221719769105 -2.5817244954718532 5.2853731798289285 -2.5512531717504343 C 5.289182095294107 -2.5360175098897253 5.2918550184275635 -2.524323471180848 5.293659241542648 -2.516505171015484 L 5.295597110814405 -2.50775134775341 L 5.296131695441097 -2.5052120707766257 C 5.30415046484147 -2.4663878622631517 5.342105973336569 -2.441396030965322 5.380930181850044 -2.4494148003656955 C 5.419754390363517 -2.4575003928444046 5.444746221661346 -2.495455901339504 5.436727452260975 -2.534280109852978 C 5.4355914599292525 -2.538890902258193 5.3328175654478045 -3.038393412823107 5.025297758943491 -3.543642708124955 Z" fill="#176be5" transform="matrix(1,0,0,1,0,0)" fill-rule="nonzero"></path></g><g clip-path="url(#SvgjsClipPath78051be318cf-b916-417f-a830-ef38249f05f1)"><path d=" M 2.4757300280948336 -3.9926269714675175 C 2.4949082515773924 -3.9579457938109037 2.5386105448094263 -3.945383055083652 2.573291722466041 -3.9645612785662117 C 2.8191338276658158 -4.100546242980874 3.0405855092727885 -4.154873405668402 3.240520159655427 -4.154940228746739 C 3.4825533493900247 -4.154873405668402 3.6955853231266063 -4.0750198270563525 3.8827567655469837 -3.9523326552306424 C 4.163146402246699 -3.7686360128837593 4.38145739917186 -3.487043560773988 4.527465825336989 -3.2510912711680064 C 4.600570273037058 -3.133148537904184 4.65576613574296 -3.026833020270902 4.69258565190634 -2.9503205955756746 C 4.710961998448862 -2.91209779476723 4.724794375664506 -2.8812923556541286 4.7338823143182625 -2.8602430859781487 C 4.738426283645141 -2.849685039600991 4.7418342606402994 -2.841599447122282 4.744039422225402 -2.8362536008553656 L 4.74651187612385 -2.830239523805086 L 4.747180106907214 -2.828502123768339 C 4.761680714906223 -2.7916157845266216 4.803378315788164 -2.773506730297445 4.8402646550298805 -2.788007338296455 C 4.877150994271597 -2.8025747693737983 4.895260048500774 -2.84427237025574 4.880759440501764 -2.8811587094974573 C 4.879155686621689 -2.884833978805961 4.7423688452669905 -3.232714924625485 4.471468085691049 -3.5846052551451955 C 4.335884059746405 -3.760483597326714 4.166554379241858 -3.9377652241532983 3.96154117490565 -4.072413727001232 C 3.756795262882788 -4.206995406770828 3.5149625423831994 -4.298676670248429 3.2405201596554263 -4.298543024091757 C 3.0141235702515563 -4.298609847170092 2.7672791188767345 -4.236130268925518 2.5037957209961386 -4.090188665838726 C 2.4691145433395256 -4.071010442356165 2.456551804612274 -4.027308149124131 2.4757300280948336 -3.9926269714675175 Z" fill="#058dd8" transform="matrix(1,0,0,1,0,0)" fill-rule="nonzero"></path></g><g clip-path="url(#SvgjsClipPath78051be318cf-b916-417f-a830-ef38249f05f1)"><path d=" M 4.958006919058693 -1.7264559158437152 C 4.773775692085119 -1.866316618801891 4.5757120878959014 -2.074470507819913 4.461778739332265 -2.3420969365573674 L 4.461778739332265 -2.342163759635705 C 4.343568713755097 -2.6180762500868786 4.2055790569903415 -2.9777848807719534 4.0084509758978335 -3.273677471645724 C 3.9096196430382335 -3.4216237670826093 3.7956194713962614 -3.554334400658786 3.658698983884889 -3.6515619796383114 C 3.5221794348435354 -3.748789558617836 3.361135816052707 -3.8093980906689904 3.1782410506458616 -3.8091307983556444 C 3.1008599259322605 -3.8091307983556444 3.0292924090339293 -3.796902175020075 2.9646744922825885 -3.7738482129940025 C 2.9273203914925165 -3.76055042040505 2.9078080526182757 -3.719521050306474 2.9211058452072276 -3.6821669495164024 C 2.9343368147178435 -3.64481284872633 2.9753661848164197 -3.6253005098520887 3.012720285606491 -3.638598302441041 C 3.06103337124374 -3.655771833573507 3.1158282954796235 -3.6655280030106274 3.178174227567525 -3.6655280030106274 C 3.329528499999569 -3.665260710697282 3.4582297488755587 -3.6173485635300517 3.575571074434354 -3.534421123314526 C 3.7511821243025265 -3.4103306668437505 3.897123727389319 -3.203713708627468 4.019142668431664 -2.974510549933467 C 4.141428901787355 -2.74544103739614 4.240193411568619 -2.495322255182832 4.329736336539453 -2.285765081519747 L 4.329736336539453 -2.2858319045980826 C 4.457034300770378 -1.9877341521392093 4.672471905327071 -1.763275432007096 4.871136917221317 -1.6121884518883984 C 4.902677410196118 -1.5881989667656153 4.9477161649948815 -1.5943466899725687 4.971705650117663 -1.625887182947369 C 4.995695135240447 -1.65742767592217 4.989547412033494 -1.702466430720932 4.958006919058693 -1.7264559158437152 Z" fill="#1c95f9" transform="matrix(1,0,0,1,0,0)" fill-rule="nonzero"></path></g><g clip-path="url(#SvgjsClipPath78051be318cf-b916-417f-a830-ef38249f05f1)"><path d=" M 4.900472248611015 -1.3668809313153139 C 3.955259805542025 -1.557259881495841 3.321041969050841 -1.885294373049442 2.9473004919151133 -2.29358338168511 C 2.8617669516444657 -2.386801575964448 2.7952111656213683 -2.5037419630532236 2.750372880057615 -2.630304873422448 C 2.7055345944938614 -2.756800960713334 2.6824806324677883 -2.8927859251279964 2.6824806324677883 -3.0225563432573694 C 2.6824806324677883 -3.1349527610192682 2.699720986678591 -3.242537917140941 2.733600287395168 -3.3353551729502615 C 2.7674795881117444 -3.4283060749162537 2.8175300737857407 -3.505887668864865 2.882415282850427 -3.5620190546674775 C 2.91241884502349 -3.5879464090620172 2.9156931758619757 -3.6333192792524622 2.8896989983890995 -3.6632560183471887 C 2.8638384670728962 -3.693192757441915 2.8185324199607873 -3.696467088280401 2.7885288577877243 -3.6705397338858607 C 2.701658855950348 -3.5953637707573622 2.639379746940783 -3.4957973840360617 2.5988181383905617 -3.3845369586058838 C 2.5582565298403406 -3.2731428870190333 2.5390114832794453 -3.1495201920966127 2.5390114832794453 -3.0225563432573703 C 2.5390114832794453 -2.875946509387213 2.5647383684389755 -2.7247258831118426 2.615122969504654 -2.582392726255218 C 2.6655743936486687 -2.4401263924769303 2.7408171798555037 -2.3064802358040444 2.841519558908524 -2.1965562719405947 C 3.2449973059039685 -1.756793593408461 3.9087509430198604 -1.4204730401411423 4.872139263396363 -1.2261515283387645 C 4.911030294988174 -1.2183332281734014 4.9488521573266 -1.2434587056279032 4.956670457491963 -1.2823497372197128 C 4.964488757657328 -1.3212407688115224 4.939363280202826 -1.3590626311499507 4.900472248611015 -1.3668809313153139 Z" fill="#1c95f9" transform="matrix(1,0,0,1,0,0)" fill-rule="nonzero"></path></g><g clip-path="url(#SvgjsClipPath78051be318cf-b916-417f-a830-ef38249f05f1)"><path d=" M 4.43558409262438 -1.6510126604018716 C 4.467993285617554 -1.628159167610808 4.512764748102972 -1.6359106446978346 4.535618240894035 -1.6683198376910093 C 4.558338087528426 -1.700862676840858 4.550653433519734 -1.7456341393262749 4.51824424052656 -1.7684876321173384 L 4.51824424052656 -1.7684876321173384 C 4.505815147955982 -1.778110155397787 4.252555681060861 -1.9759732903519946 4.043399445867793 -2.676011859004575 C 3.9624098749240244 -2.947179910893862 3.85616118036908 -3.1461122151014536 3.7338081239350522 -3.280760717949387 C 3.6725981841788697 -3.347984734755848 3.607111567409156 -3.3990375666048918 3.5386179121143013 -3.4334514519481596 C 3.47025790297612 -3.467865337291428 3.3986903860777886 -3.485372983815576 3.327991569197832 -3.48530616073724 C 3.209046489758963 -3.4854398068939125 3.0954472565870095 -3.4359239058466082 3.000758954584269 -3.350189896340951 C 2.947835076541806 -3.302411395330395 2.908810398793323 -3.238662178597427 2.882548929007101 -3.165624553975695 C 2.856354282299215 -3.0925201062756256 2.8427891973969173 -3.0095926660600996 2.8427891973969173 -2.9210520872643126 C 2.8428560204752538 -2.709690690486142 2.9201703221105184 -2.4645168160697306 3.1008599259322613 -2.2489455653563653 C 3.2814827066756678 -2.033374314642999 3.5654807896055516 -1.849744495374452 3.9722996905178185 -1.761270739657002 C 4.011057075952955 -1.7528510317866095 4.0492798767614016 -1.7773751015360837 4.05776640771013 -1.816132486971222 C 4.066186115580521 -1.8548898724063587 4.041662045831046 -1.8931126732148043 4.0029046603959095 -1.9015992041635323 C 3.6224808754265383 -1.9847271136140687 3.3699564623931186 -2.15191845561185 3.2109175359523836 -2.3412950596173285 C 3.051945432589985 -2.53067166362281 2.9863251696635977 -2.744505514299428 2.9864588158202707 -2.9211189103426474 C 2.9864588158202707 -2.9948915888260808 2.997952385294139 -3.06198195947587 3.0177988395600623 -3.1171109991034363 C 3.0375784707476496 -3.1724405079660114 3.065710986727292 -3.2154077473363447 3.0970510104670845 -3.2435402633159867 C 3.1711578043422 -3.310029226260748 3.2492739829175026 -3.3415697192355487 3.328125215354505 -3.341703365392222 C 3.3753691317383705 -3.341636542313886 3.4239495096889643 -3.3303434420750264 3.4742672876763065 -3.305084318463851 C 3.5496437200398145 -3.267329279203761 3.6288958909468367 -3.1970314007938225 3.703737738683653 -3.0868401446170277 C 3.7785795864204696 -2.976782534596905 3.8485433494387262 -2.827299308358281 3.9059443737297306 -2.634915665827661 C 4.132741901603618 -1.8736003343405638 4.42128395386038 -1.6607688298389922 4.43558409262438 -1.6510126604018716 Z" fill="#42adfc" transform="matrix(1,0,0,1,0,0)" fill-rule="nonzero"></path></g><g clip-path="url(#SvgjsClipPath78051be318cf-b916-417f-a830-ef38249f05f1)"><path d=" M 3.752050824320901 -2.71049256742618 C 3.7082817080105306 -2.8317764546068247 3.6540213684013385 -2.9542631571975253 3.5843917207747644 -3.0516912054120593 C 3.5493764277264686 -3.1003384064409896 3.510418573056322 -3.1431051765763134 3.464310649004176 -3.1753807234128155 C 3.418536840343712 -3.2075226240926447 3.3639423853428383 -3.2288391860819705 3.3047371379367494 -3.228772363003634 C 3.298990353199815 -3.228772363003634 3.293176745384544 -3.228571893768625 3.287363137569274 -3.228170955298606 C 3.2517464368159494 -3.2257653244784934 3.2180007822560457 -3.2169446781380837 3.188197689317992 -3.2015085470423648 C 3.143292580675902 -3.1784545850162913 3.10914598764598 -3.1403654303645196 3.0888317718317007 -3.097064075602504 C 3.0682502637040763 -3.0535622516054794 3.059763732755348 -3.0052491659682308 3.0596969096770117 -2.9547309187458795 C 3.0598305558336847 -2.881626471045811 3.0774718485145054 -2.8031093540004894 3.1099478645860166 -2.7232557753884405 C 3.1588623579282933 -2.603709288244543 3.2416561519871463 -2.481022116418834 3.3565250236474924 -2.376778114213981 C 3.471327072229502 -2.2726009350874667 3.6188056061180323 -2.1871342178951556 3.7951517098479064 -2.1456370862482244 C 3.8187402565006705 -2.1400907707462995 3.8433979724068186 -2.146773078579943 3.860972442009303 -2.163478848164054 C 3.8785469116117874 -2.1801846177481643 3.886498857933824 -2.2044413951842943 3.882222180920292 -2.2282972341504044 L 3.882222180920292 -2.2282972341504044 C 3.881553950136928 -2.23157156498889 3.8387871800016042 -2.4687266700049273 3.752050824320901 -2.71049256742618 Z M 3.363608269951156 -2.577180526144976 C 3.310283453438674 -2.642399850601344 3.269721844888453 -2.7116953828362353 3.242858967397203 -2.7774492919192957 C 3.215929266827616 -2.8431363779240195 3.203099235787019 -2.905348663855249 3.203232881943692 -2.954664095667544 C 3.2031660588653557 -3.0004379043280074 3.214125043712532 -3.033314858869537 3.228425182476531 -3.0520253208037422 C 3.2357088980152033 -3.061581021005853 3.2436608443372394 -3.0684637980745073 3.254218890714398 -3.073943290498095 C 3.264776937091556 -3.0794227829216836 3.2784088450721907 -3.0835658137785433 3.2971861300847314 -3.084902275345272 L 3.3047371379367494 -3.0851695676586175 C 3.3297957923129156 -3.0850359215019445 3.3541193928273807 -3.0769503290232345 3.3821182626503505 -3.0576384593840022 C 3.430899109835954 -3.0242937432941175 3.4838898109567533 -2.954062687962515 3.5291958580688623 -2.8664576322634385 C 3.597889982598726 -2.735217106410664 3.651816206816236 -2.567758472099537 3.6874329075695598 -2.4344464308183325 C 3.698726007808419 -2.392281068388037 3.7082817080105306 -2.353456859874563 3.7160331850975576 -2.3201121437846783 C 3.5682205358173453 -2.3775131680756827 3.4496763948484945 -2.471867354686741 3.363608269951156 -2.577180526144976 Z" fill="#42adfc" transform="matrix(1,0,0,1,0,0)" fill-rule="nonzero"></path></g><g clip-path="url(#SvgjsClipPath78051be318cf-b916-417f-a830-ef38249f05f1)"><path d=" M 3.0864261410115885 -5.8364093489266615 L 3.0868270794816075 -5.8365429950833345 C 3.1003253413055694 -5.841822018271913 3.4000936707228537 -5.953951143720466 3.8143299333304657 -5.953817497563793 C 4.03257410717729 -5.953817497563793 4.282358773998915 -5.922945235372356 4.54002856406424 -5.8300611564847 C 4.797765177207902 -5.737110254518707 5.063654205908611 -5.582481651248177 5.315844503550347 -5.332630161348216 C 5.343977019529991 -5.304698114603582 5.389483535877108 -5.304898583838591 5.417348759543405 -5.33309792289657 C 5.445280806288038 -5.3612304388762135 5.445080337053028 -5.406736955223331 5.416880997995049 -5.434602178889628 C 5.1498559769626215 -5.699355215258617 4.864721901701019 -5.86574468031636 4.588675765093171 -5.965177420880988 C 4.312629628485324 -6.0646769845239525 4.0459387228445785 -6.097420292908809 3.81426311025213 -6.097420292908809 C 3.360066646799325 -6.0972198236738 3.03944951694107 -5.972127021027978 3.0341036706741544 -5.970189151756221 C 2.997150508354101 -5.955755366835549 2.978907807968252 -5.914124589031945 2.9933415928889238 -5.877171426711892 C 3.0078422008879313 -5.840218264391838 3.0494729786915356 -5.8219755640059905 3.0864261410115885 -5.8364093489266615 Z" fill="#0b3e99" transform="matrix(1,0,0,1,0,0)" fill-rule="nonzero"></path></g></g><g><path d=" M 0.61669921875 0.345703125 Q 0.613037109375 0.320068359375 0.5987548828125 0.29736328125 Q 0.58447265625 0.274658203125 0.5621337890625 0.2581787109375 Q 0.539794921875 0.24169921875 0.5115966796875 0.232177734375 Q 0.4833984375 0.22265625 0.45263671875 0.22265625 Q 0.4248046875 0.22265625 0.400634765625 0.228515625 Q 0.37646484375 0.234375 0.3585205078125 0.2464599609375 Q 0.340576171875 0.258544921875 0.3299560546875 0.277587890625 Q 0.3193359375 0.296630859375 0.3193359375 0.322998046875 Q 0.3193359375 0.35595703125 0.3336181640625 0.3753662109375 Q 0.347900390625 0.394775390625 0.3702392578125 0.4072265625 Q 0.392578125 0.419677734375 0.419677734375 0.427001953125 Q 0.44677734375 0.434326171875 0.472412109375 0.443115234375 L 0.673828125 0.510498046875 Q 0.715576171875 0.525146484375 0.752197265625 0.55078125 Q 0.788818359375 0.576416015625 0.8155517578125 0.613037109375 Q 0.84228515625 0.649658203125 0.857666015625 0.697265625 Q 0.873046875 0.744873046875 0.873046875 0.80419921875 Q 0.873046875 0.884765625 0.8433837890625 0.951416015625 Q 0.813720703125 1.01806640625 0.76025390625 1.065673828125 Q 0.706787109375 1.11328125 0.632080078125 1.1396484375 Q 0.557373046875 1.166015625 0.466552734375 1.166015625 Q 0.40283203125 1.166015625 0.3460693359375 1.1517333984375 Q 0.289306640625 1.137451171875 0.242431640625 1.1103515625 Q 0.195556640625 1.083251953125 0.160400390625 1.0455322265625 Q 0.125244140625 1.0078125 0.10546875 0.960205078125 L 0.030029296875 0.960205078125 L 0.030029296875 0.73974609375 L 0.295166015625 0.73974609375 L 0.295166015625 0.78515625 Q 0.295166015625 0.818115234375 0.3057861328125 0.845947265625 Q 0.31640625 0.873779296875 0.337646484375 0.894287109375 Q 0.35888671875 0.914794921875 0.39111328125 0.9261474609375 Q 0.42333984375 0.9375 0.466552734375 0.9375 Q 0.532470703125 0.9375 0.56689453125 0.9071044921875 Q 0.601318359375 0.876708984375 0.601318359375 0.822509765625 Q 0.601318359375 0.794677734375 0.5892333984375 0.7760009765625 Q 0.5771484375 0.75732421875 0.55810546875 0.7445068359375 Q 0.5390625 0.731689453125 0.515625 0.722900390625 Q 0.4921875 0.714111328125 0.469482421875 0.706787109375 L 0.3017578125 0.652587890625 Q 0.254150390625 0.637939453125 0.2098388671875 0.611572265625 Q 0.16552734375 0.585205078125 0.1314697265625 0.545654296875 Q 0.097412109375 0.506103515625 0.0772705078125 0.4530029296875 Q 0.05712890625 0.39990234375 0.05712890625 0.331787109375 Q 0.05712890625 0.252685546875 0.08642578125 0.1907958984375 Q 0.11572265625 0.12890625 0.16845703125 0.08642578125 Q 0.22119140625 0.0439453125 0.293701171875 0.02197265625 Q 0.3662109375 0 0.45263671875 0 Q 0.520751953125 0 0.57861328125 0.0157470703125 Q 0.636474609375 0.031494140625 0.6822509765625 0.057861328125 Q 0.72802734375 0.084228515625 0.7598876953125 0.1182861328125 Q 0.791748046875 0.15234375 0.80859375 0.18896484375 L 0.8818359375 0.18896484375 L 0.8818359375 0.41015625 L 0.61669921875 0.41015625 L 0.61669921875 0.345703125 M 1.256103515625 0.384521484375 L 1.40771484375 0.384521484375 L 1.40771484375 0.576416015625 L 1.254638671875 0.576416015625 L 1.253173828125 0.897216796875 Q 1.253173828125 0.925048828125 1.257568359375 0.9422607421875 Q 1.261962890625 0.95947265625 1.2703857421875 0.9697265625 Q 1.27880859375 0.97998046875 1.29052734375 0.983642578125 Q 1.30224609375 0.9873046875 1.317626953125 0.9873046875 Q 1.345458984375 0.9873046875 1.36669921875 0.9818115234375 Q 1.387939453125 0.976318359375 1.4091796875 0.968994140625 L 1.440673828125 1.1103515625 Q 1.4033203125 1.1337890625 1.3575439453125 1.147705078125 Q 1.311767578125 1.16162109375 1.248779296875 1.16162109375 Q 1.2041015625 1.16162109375 1.1634521484375 1.146240234375 Q 1.122802734375 1.130859375 1.092041015625 1.0997314453125 Q 1.061279296875 1.068603515625 1.04296875 1.021728515625 Q 1.024658203125 0.974853515625 1.025390625 0.91259765625 L 1.027587890625 0.576416015625 L 0.91845703125 0.576416015625 L 0.91845703125 0.384521484375 L 1.0283203125 0.384521484375 L 1.02978515625 0.202880859375 L 1.257568359375 0.094482421875 L 1.256103515625 0.384521484375 M 2.243408203125 0.66064453125 L 2.03759765625 0.66064453125 L 2.03759765625 0.582275390625 Q 2.007568359375 0.582275390625 1.982666015625 0.5863037109375 Q 1.957763671875 0.59033203125 1.9390869140625 0.599853515625 Q 1.92041015625 0.609375 1.9075927734375 0.626220703125 Q 1.894775390625 0.64306640625 1.8896484375 0.66796875 L 1.8896484375 0.942626953125 L 2.044189453125 0.942626953125 L 2.044189453125 1.143310546875 L 1.549072265625 1.143310546875 L 1.549072265625 0.942626953125 L 1.66259765625 0.942626953125 L 1.66259765625 0.585205078125 L 1.550537109375 0.585205078125 L 1.550537109375 0.384521484375 L 1.88818359375 0.384521484375 L 1.88818359375 0.43798828125 Q 1.92041015625 0.412353515625 1.960693359375 0.3984375 Q 2.0009765625 0.384521484375 2.048583984375 0.384521484375 Q 2.096923828125 0.384521484375 2.148193359375 0.38525390625 Q 2.199462890625 0.385986328125 2.243408203125 0.385986328125 L 2.243408203125 0.66064453125 M 2.564208984375 0.8115234375 L 2.56640625 0.834228515625 Q 2.574462890625 0.8671875 2.5938720703125 0.89208984375 Q 2.61328125 0.9169921875 2.6396484375 0.933837890625 Q 2.666015625 0.95068359375 2.6982421875 0.9591064453125 Q 2.73046875 0.967529296875 2.763427734375 0.967529296875 Q 2.79638671875 0.967529296875 2.8260498046875 0.9635009765625 Q 2.855712890625 0.95947265625 2.883544921875 0.9525146484375 Q 2.911376953125 0.945556640625 2.937744140625 0.9364013671875 Q 2.964111328125 0.92724609375 2.9912109375 0.9169921875 L 3.07177734375 1.067138671875 Q 3.030029296875 1.0927734375 2.9952392578125 1.1107177734375 Q 2.96044921875 1.128662109375 2.92529296875 1.140380859375 Q 2.89013671875 1.152099609375 2.8505859375 1.1575927734375 Q 2.81103515625 1.1630859375 2.75830078125 1.1630859375 Q 2.659423828125 1.1630859375 2.58251953125 1.1304931640625 Q 2.505615234375 1.097900390625 2.4532470703125 1.042236328125 Q 2.40087890625 0.986572265625 2.3734130859375 0.911865234375 Q 2.345947265625 0.837158203125 2.345947265625 0.753662109375 Q 2.345947265625 0.670166015625 2.3748779296875 0.596923828125 Q 2.40380859375 0.523681640625 2.45654296875 0.4691162109375 Q 2.50927734375 0.41455078125 2.58251953125 0.383056640625 Q 2.65576171875 0.3515625 2.7451171875 0.3515625 Q 2.83447265625 0.3515625 2.9036865234375 0.3812255859375 Q 2.972900390625 0.410888671875 3.0205078125 0.4632568359375 Q 3.068115234375 0.515625 3.09375 0.5863037109375 Q 3.119384765625 0.656982421875 3.12158203125 0.73828125 Q 3.123779296875 0.756591796875 3.1241455078125 0.7745361328125 Q 3.12451171875 0.79248046875 3.123046875 0.8115234375 L 2.564208984375 0.8115234375 M 2.7392578125 0.53466796875 Q 2.6982421875 0.53466796875 2.6693115234375 0.5445556640625 Q 2.640380859375 0.554443359375 2.62060546875 0.5716552734375 Q 2.600830078125 0.5888671875 2.589111328125 0.61083984375 Q 2.577392578125 0.6328125 2.57080078125 0.656982421875 L 2.887939453125 0.656982421875 Q 2.8828125 0.632080078125 2.873291015625 0.610107421875 Q 2.86376953125 0.588134765625 2.846923828125 0.5712890625 Q 2.830078125 0.554443359375 2.8040771484375 0.5445556640625 Q 2.778076171875 0.53466796875 2.7392578125 0.53466796875 M 3.70166015625 1.102294921875 Q 3.676025390625 1.118408203125 3.65478515625 1.1297607421875 Q 3.633544921875 1.14111328125 3.6123046875 1.1480712890625 Q 3.591064453125 1.155029296875 3.568359375 1.1583251953125 Q 3.545654296875 1.16162109375 3.5185546875 1.16162109375 Q 3.450439453125 1.16162109375 3.3966064453125 1.1429443359375 Q 3.3427734375 1.124267578125 3.3057861328125 1.0916748046875 Q 3.268798828125 1.05908203125 3.2490234375 1.0147705078125 Q 3.229248046875 0.970458984375 3.229248046875 0.91845703125 Q 3.229248046875 0.86572265625 3.2493896484375 0.821044921875 Q 3.26953125 0.7763671875 3.3076171875 0.7445068359375 Q 3.345703125 0.712646484375 3.4010009765625 0.6947021484375 Q 3.456298828125 0.6767578125 3.52734375 0.6767578125 Q 3.579345703125 0.6767578125 3.6221923828125 0.6822509765625 Q 3.6650390625 0.687744140625 3.70166015625 0.69580078125 L 3.70166015625 0.67236328125 Q 3.70166015625 0.643798828125 3.690673828125 0.6229248046875 Q 3.6796875 0.60205078125 3.659912109375 0.5885009765625 Q 3.64013671875 0.574951171875 3.6123046875 0.5687255859375 Q 3.58447265625 0.5625 3.551513671875 0.5625 Q 3.482666015625 0.5625 3.4302978515625 0.5760498046875 Q 3.3779296875 0.589599609375 3.32958984375 0.615234375 L 3.25927734375 0.47314453125 Q 3.333984375 0.421875 3.4156494140625 0.394775390625 Q 3.497314453125 0.36767578125 3.5888671875 0.36767578125 Q 3.659912109375 0.36767578125 3.7203369140625 0.3834228515625 Q 3.78076171875 0.399169921875 3.823974609375 0.4346923828125 Q 3.8671875 0.47021484375 3.8917236328125 0.52734375 Q 3.916259765625 0.58447265625 3.916259765625 0.66650390625 L 3.916259765625 0.942626953125 L 4.01806640625 0.942626953125 L 4.01806640625 1.143310546875 L 3.70166015625 1.143310546875 L 3.70166015625 1.102294921875 M 3.53466796875 0.98876953125 Q 3.586669921875 0.98876953125 3.629150390625 0.971923828125 Q 3.671630859375 0.955078125 3.70166015625 0.930908203125 L 3.70166015625 0.834228515625 L 3.52587890625 0.834228515625 Q 3.509033203125 0.834228515625 3.492919921875 0.83935546875 Q 3.476806640625 0.844482421875 3.4639892578125 0.85400390625 Q 3.451171875 0.863525390625 3.4434814453125 0.87744140625 Q 3.435791015625 0.891357421875 3.435791015625 0.90966796875 Q 3.435791015625 0.943359375 3.4603271484375 0.966064453125 Q 3.48486328125 0.98876953125 3.53466796875 0.98876953125 M 4.17333984375 0.384521484375 L 4.5205078125 0.384521484375 L 4.5205078125 0.450439453125 Q 4.5673828125 0.4130859375 4.6259765625 0.39111328125 Q 4.6845703125 0.369140625 4.746826171875 0.369140625 Q 4.833251953125 0.369140625 4.8951416015625 0.3995361328125 Q 4.95703125 0.429931640625 4.9921875 0.4921875 Q 5.016357421875 0.465087890625 5.0467529296875 0.4427490234375 Q 5.0771484375 0.42041015625 5.111572265625 0.4039306640625 Q 5.14599609375 0.387451171875 5.1837158203125 0.3782958984375 Q 5.221435546875 0.369140625 5.260986328125 0.369140625 Q 5.400146484375 0.369140625 5.474853515625 0.446044921875 Q 5.549560546875 0.52294921875 5.549560546875 0.6708984375 L 5.549560546875 0.942626953125 L 5.6572265625 0.942626953125 L 5.6572265625 1.143310546875 L 5.310791015625 1.143310546875 L 5.310791015625 0.708251953125 Q 5.310791015625 0.643798828125 5.2774658203125 0.607177734375 Q 5.244140625 0.570556640625 5.184814453125 0.570556640625 Q 5.143798828125 0.570556640625 5.1075439453125 0.5899658203125 Q 5.0712890625 0.609375 5.035400390625 0.656982421875 Q 5.0361328125 0.6650390625 5.0361328125 0.6734619140625 Q 5.0361328125 0.681884765625 5.0361328125 0.690673828125 L 5.0361328125 0.942626953125 L 5.14599609375 0.942626953125 L 5.14599609375 1.143310546875 L 4.799560546875 1.143310546875 L 4.799560546875 0.706787109375 Q 4.799560546875 0.676025390625 4.7900390625 0.651123046875 Q 4.780517578125 0.626220703125 4.763671875 0.608642578125 Q 4.746826171875 0.591064453125 4.7237548828125 0.5811767578125 Q 4.70068359375 0.5712890625 4.6728515625 0.570556640625 Q 4.63623046875 0.56982421875 4.5970458984375 0.586669921875 Q 4.557861328125 0.603515625 4.52197265625 0.64892578125 L 4.52197265625 0.942626953125 L 4.6435546875 0.942626953125 L 4.6435546875 1.143310546875 L 4.171875 1.143310546875 L 4.171875 0.942626953125 L 4.28466796875 0.942626953125 L 4.28466796875 0.585205078125 L 4.17333984375 0.585205078125 L 4.17333984375 0.384521484375 M 5.73486328125 0.003662109375 L 6.076904296875 0.003662109375 L 6.076904296875 0.942626953125 L 6.194091796875 0.942626953125 L 6.194091796875 1.143310546875 L 5.73486328125 1.143310546875 L 5.73486328125 0.942626953125 L 5.85205078125 0.942626953125 L 5.85205078125 0.204345703125 L 5.73486328125 0.204345703125 L 5.73486328125 0.003662109375 M 6.517822265625 0.8115234375 L 6.52001953125 0.834228515625 Q 6.528076171875 0.8671875 6.5474853515625 0.89208984375 Q 6.56689453125 0.9169921875 6.59326171875 0.933837890625 Q 6.61962890625 0.95068359375 6.65185546875 0.9591064453125 Q 6.68408203125 0.967529296875 6.717041015625 0.967529296875 Q 6.75 0.967529296875 6.7796630859375 0.9635009765625 Q 6.809326171875 0.95947265625 6.837158203125 0.9525146484375 Q 6.864990234375 0.945556640625 6.891357421875 0.9364013671875 Q 6.917724609375 0.92724609375 6.94482421875 0.9169921875 L 7.025390625 1.067138671875 Q 6.983642578125 1.0927734375 6.9488525390625 1.1107177734375 Q 6.9140625 1.128662109375 6.87890625 1.140380859375 Q 6.84375 1.152099609375 6.80419921875 1.1575927734375 Q 6.7646484375 1.1630859375 6.7119140625 1.1630859375 Q 6.613037109375 1.1630859375 6.5361328125 1.1304931640625 Q 6.459228515625 1.097900390625 6.4068603515625 1.042236328125 Q 6.3544921875 0.986572265625 6.3270263671875 0.911865234375 Q 6.299560546875 0.837158203125 6.299560546875 0.753662109375 Q 6.299560546875 0.670166015625 6.3284912109375 0.596923828125 Q 6.357421875 0.523681640625 6.41015625 0.4691162109375 Q 6.462890625 0.41455078125 6.5361328125 0.383056640625 Q 6.609375 0.3515625 6.69873046875 0.3515625 Q 6.7880859375 0.3515625 6.8572998046875 0.3812255859375 Q 6.926513671875 0.410888671875 6.97412109375 0.4632568359375 Q 7.021728515625 0.515625 7.04736328125 0.5863037109375 Q 7.072998046875 0.656982421875 7.0751953125 0.73828125 Q 7.077392578125 0.756591796875 7.0777587890625 0.7745361328125 Q 7.078125 0.79248046875 7.07666015625 0.8115234375 L 6.517822265625 0.8115234375 M 6.69287109375 0.53466796875 Q 6.65185546875 0.53466796875 6.6229248046875 0.5445556640625 Q 6.593994140625 0.554443359375 6.57421875 0.5716552734375 Q 6.554443359375 0.5888671875 6.542724609375 0.61083984375 Q 6.531005859375 0.6328125 6.5244140625 0.656982421875 L 6.841552734375 0.656982421875 Q 6.83642578125 0.632080078125 6.826904296875 0.610107421875 Q 6.8173828125 0.588134765625 6.800537109375 0.5712890625 Q 6.78369140625 0.554443359375 6.7576904296875 0.5445556640625 Q 6.731689453125 0.53466796875 6.69287109375 0.53466796875 M 7.47509765625 0.384521484375 L 7.626708984375 0.384521484375 L 7.626708984375 0.576416015625 L 7.4736328125 0.576416015625 L 7.47216796875 0.897216796875 Q 7.47216796875 0.925048828125 7.4765625 0.9422607421875 Q 7.48095703125 0.95947265625 7.4893798828125 0.9697265625 Q 7.497802734375 0.97998046875 7.509521484375 0.983642578125 Q 7.521240234375 0.9873046875 7.53662109375 0.9873046875 Q 7.564453125 0.9873046875 7.585693359375 0.9818115234375 Q 7.60693359375 0.976318359375 7.628173828125 0.968994140625 L 7.65966796875 1.1103515625 Q 7.622314453125 1.1337890625 7.5765380859375 1.147705078125 Q 7.53076171875 1.16162109375 7.4677734375 1.16162109375 Q 7.423095703125 1.16162109375 7.3824462890625 1.146240234375 Q 7.341796875 1.130859375 7.31103515625 1.0997314453125 Q 7.2802734375 1.068603515625 7.261962890625 1.021728515625 Q 7.24365234375 0.974853515625 7.244384765625 0.91259765625 L 7.24658203125 0.576416015625 L 7.137451171875 0.576416015625 L 7.137451171875 0.384521484375 L 7.247314453125 0.384521484375 L 7.248779296875 0.202880859375 L 7.4765625 0.094482421875 L 7.47509765625 0.384521484375" fill="#ffffff" fill-rule="nonzero"></path></g><g></g></g><defs><clipPath id="SvgjsClipPath7807"><path d=" M 1.3978069514496663 -6.932307833644332 h 4.9204505502256675 v 6.682307833644332 h -4.9204505502256675 Z"></path></clipPath><clipPath id="SvgjsClipPath78051be318cf-b916-417f-a830-ef38249f05f1"><path d=" M 1.3978069514496663 -6.932307833644332 L 6.318257501675333 -6.932307833644332 L 6.318257501675333 -0.25 L 1.3978069514496663 -0.25 Z"></path></clipPath></defs></svg>